<svg xmlns="http://www.w3.org/2000/svg" viewBox="0 0 780 430" width="780" height="430" role="img" aria-label="P&amp;L vs one-way latency — touch-maker">
<style>
  .surface { fill: #fcfcfb; }
  .ink     { fill: #0b0b0b; }
  .muted   { fill: #52514e; }
  .grid    { stroke: #d8d7d2; stroke-width: 1; }
  .axis    { stroke: #52514e; stroke-width: 1; }
  .s1 { fill: #2a78d6; stroke: #2a78d6; }
  .s2 { fill: #eb6834; stroke: #eb6834; }
  .s3 { fill: #1baf7a; stroke: #1baf7a; }
  .s4 { fill: #eda100; stroke: #eda100; }
  /* Stroke-only twins. A class that sets `fill` beats a fill="none"
     presentation attribute in the cascade, which silently turns every
     polyline into a filled blob. */
  .k1 { fill: none; stroke: #2a78d6; }
  .k2 { fill: none; stroke: #eb6834; }
  .k3 { fill: none; stroke: #1baf7a; }
  .k4 { fill: none; stroke: #eda100; }
  @media (prefers-color-scheme: dark) {
    .surface { fill: #1a1a19; }
    .ink     { fill: #ffffff; }
    .muted   { fill: #c3c2b7; }
    .grid    { stroke: #3a3a38; }
    .axis    { stroke: #c3c2b7; }
    .s1 { fill: #3987e5; stroke: #3987e5; }
    .s2 { fill: #d95926; stroke: #d95926; }
    .s3 { fill: #199e70; stroke: #199e70; }
    .s4 { fill: #c98500; stroke: #c98500; }
    .k1 { stroke: #3987e5; }
    .k2 { stroke: #d95926; }
    .k3 { stroke: #199e70; }
    .k4 { stroke: #c98500; }
  }
</style>
<rect class="surface" width="780" height="430"/>
<text class="ink" x="16" y="26" font-family="system-ui,sans-serif" font-size="15" font-weight="600">P&amp;L vs one-way latency — touch-maker</text>
<text class="muted" x="16" y="46" font-family="system-ui,sans-serif" font-size="11.5">Flat means the strategy is not racing anyone. Collapsing means the edge was the wire.</text>
<text class="muted" x="16" y="66" font-family="system-ui,sans-serif" font-size="11">cents/share (axis excludes zero)</text>
<line class="grid" x1="78" y1="368.0" x2="648" y2="368.0"/>
<text class="muted" x="68" y="372.0" text-anchor="end" font-family="ui-monospace,monospace" font-size="10.5">1.054</text>
<line class="grid" x1="78" y1="295.5" x2="648" y2="295.5"/>
<text class="muted" x="68" y="299.5" text-anchor="end" font-family="ui-monospace,monospace" font-size="10.5">1.219</text>
<line class="grid" x1="78" y1="223.0" x2="648" y2="223.0"/>
<text class="muted" x="68" y="227.0" text-anchor="end" font-family="ui-monospace,monospace" font-size="10.5">1.383</text>
<line class="grid" x1="78" y1="150.5" x2="648" y2="150.5"/>
<text class="muted" x="68" y="154.5" text-anchor="end" font-family="ui-monospace,monospace" font-size="10.5">1.548</text>
<line class="grid" x1="78" y1="78.0" x2="648" y2="78.0"/>
<text class="muted" x="68" y="82.0" text-anchor="end" font-family="ui-monospace,monospace" font-size="10.5">1.712</text>
<text class="muted" x="78.0" y="388" text-anchor="middle" font-family="ui-monospace,monospace" font-size="10.5">0</text>
<text class="muted" x="173.0" y="388" text-anchor="middle" font-family="ui-monospace,monospace" font-size="10.5">100</text>
<text class="muted" x="268.0" y="388" text-anchor="middle" font-family="ui-monospace,monospace" font-size="10.5">250</text>
<text class="muted" x="363.0" y="388" text-anchor="middle" font-family="ui-monospace,monospace" font-size="10.5">500</text>
<text class="muted" x="458.0" y="388" text-anchor="middle" font-family="ui-monospace,monospace" font-size="10.5">1000</text>
<text class="muted" x="553.0" y="388" text-anchor="middle" font-family="ui-monospace,monospace" font-size="10.5">2000</text>
<text class="muted" x="648.0" y="388" text-anchor="middle" font-family="ui-monospace,monospace" font-size="10.5">5000</text>
<text class="muted" x="363" y="412" text-anchor="middle" font-family="system-ui,sans-serif" font-size="11">one-way latency, microseconds (sweep points, evenly spaced — not to scale)</text>
<polyline class="k1" stroke-width="2" stroke-linejoin="round" points="78.0,117.3 173.0,119.7 268.0,120.6 363.0,121.0 458.0,117.9 553.0,113.8 648.0,106.1"/>
<circle class="s1" cx="78.0" cy="117.3" r="4"/>
<circle class="s1" cx="173.0" cy="119.7" r="4"/>
<circle class="s1" cx="268.0" cy="120.6" r="4"/>
<circle class="s1" cx="363.0" cy="121.0" r="4"/>
<circle class="s1" cx="458.0" cy="117.9" r="4"/>
<circle class="s1" cx="553.0" cy="113.8" r="4"/>
<circle class="s1" cx="648.0" cy="106.1" r="4"/>
<polyline class="k2" stroke-width="2" stroke-linejoin="round" points="78.0,328.5 173.0,326.9 268.0,321.1 363.0,320.6 458.0,311.0 553.0,299.8 648.0,298.7"/>
<circle class="s2" cx="78.0" cy="328.5" r="4"/>
<circle class="s2" cx="173.0" cy="326.9" r="4"/>
<circle class="s2" cx="268.0" cy="321.1" r="4"/>
<circle class="s2" cx="363.0" cy="320.6" r="4"/>
<circle class="s2" cx="458.0" cy="311.0" r="4"/>
<circle class="s2" cx="553.0" cy="299.8" r="4"/>
<circle class="s2" cx="648.0" cy="298.7" r="4"/>
<polyline class="k3" stroke-width="2" stroke-linejoin="round" points="78.0,326.0 173.0,327.1 268.0,323.5 363.0,320.3 458.0,313.0 553.0,299.1 648.0,298.4"/>
<circle class="s3" cx="78.0" cy="326.0" r="4"/>
<circle class="s3" cx="173.0" cy="327.1" r="4"/>
<circle class="s3" cx="268.0" cy="323.5" r="4"/>
<circle class="s3" cx="363.0" cy="320.3" r="4"/>
<circle class="s3" cx="458.0" cy="313.0" r="4"/>
<circle class="s3" cx="553.0" cy="299.1" r="4"/>
<circle class="s3" cx="648.0" cy="298.4" r="4"/>
<polyline class="k4" stroke-width="2" stroke-linejoin="round" points="78.0,339.9 173.0,333.7 268.0,326.5 363.0,323.7 458.0,313.5 553.0,304.2 648.0,304.9"/>
<circle class="s4" cx="78.0" cy="339.9" r="4"/>
<circle class="s4" cx="173.0" cy="333.7" r="4"/>
<circle class="s4" cx="268.0" cy="326.5" r="4"/>
<circle class="s4" cx="363.0" cy="323.7" r="4"/>
<circle class="s4" cx="458.0" cy="313.5" r="4"/>
<circle class="s4" cx="553.0" cy="304.2" r="4"/>
<circle class="s4" cx="648.0" cy="304.9" r="4"/>
<circle class="s1" cx="660" cy="102.1" r="4"/>
<text class="ink" x="670" y="106.1" font-family="system-ui,sans-serif" font-size="11.5">naive</text>
<circle class="s3" cx="660" cy="294.4" r="4"/>
<text class="ink" x="670" y="298.4" font-family="system-ui,sans-serif" font-size="11.5">mbo</text>
<circle class="s2" cx="660" cy="309.4" r="4"/>
<text class="ink" x="670" y="313.4" font-family="system-ui,sans-serif" font-size="11.5">optimistic</text>
<circle class="s4" cx="660" cy="324.4" r="4"/>
<text class="ink" x="670" y="328.4" font-family="system-ui,sans-serif" font-size="11.5">pessimistic</text>
</svg>