<svg xmlns="http://www.w3.org/2000/svg" viewBox="0 0 720 440" width="720" height="440" role="img" aria-label="Wire-to-book distribution at the max sustainable rate">
<style>
  .surface { fill: #fcfcfb; }
  .ink     { fill: #0b0b0b; }
  .muted   { fill: #52514e; }
  /* Text drawn ON a filled mark, so it needs the surface colour, not ink. */
  .on-fill { fill: #fcfcfb; }
  .grid    { stroke: #d8d7d2; stroke-width: 1; }
  .axis    { stroke: #52514e; stroke-width: 1; }
  .s1 { fill: #2a78d6; stroke: #2a78d6; }
  .s2 { fill: #eb6834; stroke: #eb6834; }
  .s3 { fill: #1baf7a; stroke: #1baf7a; }
  .s4 { fill: #eda100; stroke: #eda100; }
  /* Stroke-only twins. A class that sets `fill` beats a fill="none"
     presentation attribute in the cascade, which silently turns every
     polyline into a filled blob. */
  .k1 { fill: none; stroke: #2a78d6; }
  .k2 { fill: none; stroke: #eb6834; }
  .k3 { fill: none; stroke: #1baf7a; }
  .k4 { fill: none; stroke: #eda100; }
  @media (prefers-color-scheme: dark) {
    .surface { fill: #1a1a19; }
    .ink     { fill: #ffffff; }
    .muted   { fill: #c3c2b7; }
    .on-fill { fill: #1a1a19; }
    .grid    { stroke: #3a3a38; }
    .axis    { stroke: #c3c2b7; }
    .s1 { fill: #3987e5; stroke: #3987e5; }
    .s2 { fill: #d95926; stroke: #d95926; }
    .s3 { fill: #199e70; stroke: #199e70; }
    .s4 { fill: #c98500; stroke: #c98500; }
    .k1 { stroke: #3987e5; }
    .k2 { stroke: #d95926; }
    .k3 { stroke: #199e70; }
    .k4 { stroke: #c98500; }
  }
</style>
<rect class="surface" width="720" height="440"/>
<text class="ink" x="16" y="26" font-family="system-ui,sans-serif" font-size="15" font-weight="600">Wire-to-book distribution at the max sustainable rate</text>
<text class="muted" x="16" y="46" font-family="system-ui,sans-serif" font-size="11.5">3,356,720 msg/s (800x real time); UNPINNED — describes a scheduler as much as a pipeline</text>
<line class="grid" x1="66" y1="378.0" x2="690" y2="378.0"/>
<text class="muted" x="58" y="382.0" text-anchor="end" font-family="ui-monospace,monospace" font-size="10.5">1</text>
<line class="grid" x1="66" y1="324.8" x2="690" y2="324.8"/>
<text class="muted" x="58" y="328.8" text-anchor="end" font-family="ui-monospace,monospace" font-size="10.5">10</text>
<line class="grid" x1="66" y1="271.6" x2="690" y2="271.6"/>
<text class="muted" x="58" y="275.6" text-anchor="end" font-family="ui-monospace,monospace" font-size="10.5">100</text>
<line class="grid" x1="66" y1="218.4" x2="690" y2="218.4"/>
<text class="muted" x="58" y="222.4" text-anchor="end" font-family="ui-monospace,monospace" font-size="10.5">1,000</text>
<line class="grid" x1="66" y1="165.2" x2="690" y2="165.2"/>
<text class="muted" x="58" y="169.2" text-anchor="end" font-family="ui-monospace,monospace" font-size="10.5">10,000</text>
<line class="grid" x1="66" y1="112.0" x2="690" y2="112.0"/>
<text class="muted" x="58" y="116.0" text-anchor="end" font-family="ui-monospace,monospace" font-size="10.5">100,000</text>
<line class="grid" x1="66.0" y1="112" x2="66.0" y2="378"/>
<text class="muted" x="66.0" y="396" text-anchor="start" font-family="ui-monospace,monospace" font-size="10.5">1,000</text>
<line class="grid" x1="190.8" y1="112" x2="190.8" y2="378"/>
<text class="muted" x="190.8" y="396" text-anchor="middle" font-family="ui-monospace,monospace" font-size="10.5">10,000</text>
<line class="grid" x1="315.6" y1="112" x2="315.6" y2="378"/>
<text class="muted" x="315.6" y="396" text-anchor="middle" font-family="ui-monospace,monospace" font-size="10.5">100,000</text>
<line class="grid" x1="440.4" y1="112" x2="440.4" y2="378"/>
<text class="muted" x="440.4" y="396" text-anchor="middle" font-family="ui-monospace,monospace" font-size="10.5">1,000,000</text>
<line class="grid" x1="565.2" y1="112" x2="565.2" y2="378"/>
<text class="muted" x="565.2" y="396" text-anchor="middle" font-family="ui-monospace,monospace" font-size="10.5">10,000,000</text>
<line class="grid" x1="690.0" y1="112" x2="690.0" y2="378"/>
<text class="muted" x="690.0" y="396" text-anchor="end" font-family="ui-monospace,monospace" font-size="10.5">100,000,000</text>
<rect class="s1" x="105.9" y="303.6" width="7.4" height="74.4" rx="2"/>
<rect class="s1" x="115.2" y="251.1" width="7.4" height="126.9" rx="2"/>
<rect class="s1" x="124.6" y="218.7" width="7.4" height="159.3" rx="2"/>
<rect class="s1" x="134.0" y="206.0" width="7.4" height="172.0" rx="2"/>
<rect class="s1" x="143.4" y="197.4" width="7.4" height="180.6" rx="2"/>
<rect class="s1" x="152.8" y="192.2" width="7.4" height="185.8" rx="2"/>
<rect class="s1" x="162.2" y="188.7" width="7.4" height="189.3" rx="2"/>
<rect class="s1" x="171.6" y="184.1" width="7.4" height="193.9" rx="2"/>
<rect class="s1" x="181.0" y="180.0" width="7.4" height="198.0" rx="2"/>
<rect class="s1" x="190.4" y="175.6" width="7.4" height="202.4" rx="2"/>
<rect class="s1" x="199.8" y="171.3" width="7.4" height="206.7" rx="2"/>
<rect class="s1" x="209.2" y="166.3" width="7.4" height="211.7" rx="2"/>
<rect class="s1" x="218.6" y="160.4" width="7.4" height="217.6" rx="2"/>
<rect class="s1" x="228.0" y="156.1" width="7.4" height="221.9" rx="2"/>
<rect class="s1" x="237.3" y="158.1" width="7.4" height="219.9" rx="2"/>
<rect class="s1" x="246.7" y="162.7" width="7.4" height="215.3" rx="2"/>
<rect class="s1" x="256.1" y="164.1" width="7.4" height="213.9" rx="2"/>
<rect class="s1" x="265.5" y="171.3" width="7.4" height="206.7" rx="2"/>
<rect class="s1" x="274.9" y="180.4" width="7.4" height="197.6" rx="2"/>
<rect class="s1" x="284.3" y="187.4" width="7.4" height="190.6" rx="2"/>
<rect class="s1" x="293.7" y="188.5" width="7.4" height="189.5" rx="2"/>
<rect class="s1" x="303.1" y="188.7" width="7.4" height="189.3" rx="2"/>
<rect class="s1" x="312.5" y="192.7" width="7.4" height="185.3" rx="2"/>
<rect class="s1" x="321.9" y="197.2" width="7.4" height="180.8" rx="2"/>
<rect class="s1" x="331.3" y="201.7" width="7.4" height="176.3" rx="2"/>
<rect class="s1" x="340.7" y="207.6" width="7.4" height="170.4" rx="2"/>
<rect class="s1" x="350.0" y="215.8" width="7.4" height="162.2" rx="2"/>
<rect class="s1" x="359.4" y="222.0" width="7.4" height="156.0" rx="2"/>
<rect class="s1" x="368.8" y="216.1" width="7.4" height="161.9" rx="2"/>
<rect class="s1" x="378.2" y="213.1" width="7.4" height="164.9" rx="2"/>
<rect class="s1" x="387.6" y="224.1" width="7.4" height="153.9" rx="2"/>
<rect class="s1" x="397.0" y="223.7" width="7.4" height="154.3" rx="2"/>
<rect class="s1" x="406.4" y="215.3" width="7.4" height="162.7" rx="2"/>
<rect class="s1" x="415.8" y="209.6" width="7.4" height="168.4" rx="2"/>
<rect class="s1" x="425.2" y="206.7" width="7.4" height="171.3" rx="2"/>
<rect class="s1" x="434.6" y="203.4" width="7.4" height="174.6" rx="2"/>
<rect class="s1" x="444.0" y="203.8" width="7.4" height="174.2" rx="2"/>
<rect class="s1" x="453.4" y="210.1" width="7.4" height="167.9" rx="2"/>
<rect class="s1" x="462.8" y="199.9" width="7.4" height="178.1" rx="2"/>
<rect class="s1" x="472.1" y="207.3" width="7.4" height="170.7" rx="2"/>
<rect class="s1" x="481.5" y="193.9" width="7.4" height="184.1" rx="2"/>
<rect class="s1" x="490.9" y="170.5" width="7.4" height="207.5" rx="2"/>
<rect class="s1" x="500.3" y="171.9" width="7.4" height="206.1" rx="2"/>
<rect class="s1" x="509.7" y="206.8" width="7.4" height="171.2" rx="2"/>
<rect class="s1" x="519.1" y="204.5" width="7.4" height="173.5" rx="2"/>
<rect class="s1" x="528.5" y="197.3" width="7.4" height="180.7" rx="2"/>
<rect class="s1" x="537.9" y="194.8" width="7.4" height="183.2" rx="2"/>
<rect class="s1" x="547.3" y="187.2" width="7.4" height="190.8" rx="2"/>
<rect class="s1" x="556.7" y="186.7" width="7.4" height="191.3" rx="2"/>
<rect class="s1" x="566.1" y="178.6" width="7.4" height="199.4" rx="2"/>
<rect class="s1" x="575.5" y="162.7" width="7.4" height="215.3" rx="2"/>
<rect class="s1" x="584.9" y="176.1" width="7.4" height="201.9" rx="2"/>
<rect class="s1" x="594.2" y="170.8" width="7.4" height="207.2" rx="2"/>
<rect class="s1" x="603.6" y="169.0" width="7.4" height="209.0" rx="2"/>
<rect class="s1" x="613.0" y="161.8" width="7.4" height="216.2" rx="2"/>
<rect class="s1" x="622.4" y="176.4" width="7.4" height="201.6" rx="2"/>
<line class="axis" x1="66" y1="378" x2="690" y2="378"/>
<line class="axis" x1="296.9" y1="106" x2="296.9" y2="378" stroke-dasharray="4 3"/>
<text class="ink" x="296.9" y="98" text-anchor="middle" font-family="ui-monospace,monospace" font-size="10.5">p50 70,805.218368</text>
<line class="axis" x1="623.9" y1="106" x2="623.9" y2="378" stroke-dasharray="4 3"/>
<text class="ink" x="623.9" y="82" text-anchor="middle" font-family="ui-monospace,monospace" font-size="10.5">p99 29,549,501.001728</text>
<line class="axis" x1="625.2" y1="106" x2="625.2" y2="378" stroke-dasharray="4 3"/>
<text class="ink" x="625.2" y="98" text-anchor="middle" font-family="ui-monospace,monospace" font-size="10.5">p99.9 30,241,416.416575998</text>
<text class="muted" x="378" y="414" text-anchor="middle" font-family="system-ui,sans-serif" font-size="11">cycles, wire to book — log scale</text>
<text class="muted" x="16" y="66" font-family="system-ui,sans-serif" font-size="11">messages — log</text>
</svg>