<svg xmlns="http://www.w3.org/2000/svg" viewBox="0 0 780 430" width="780" height="430" role="img" aria-label="Fill intensity against depth, measured not assumed">
<style>
  .surface { fill: #fcfcfb; }
  .ink     { fill: #0b0b0b; }
  .muted   { fill: #52514e; }
  /* Text drawn ON a filled mark, so it needs the surface colour, not ink. */
  .on-fill { fill: #fcfcfb; }
  .grid    { stroke: #d8d7d2; stroke-width: 1; }
  .axis    { stroke: #52514e; stroke-width: 1; }
  .s1 { fill: #2a78d6; stroke: #2a78d6; }
  .s2 { fill: #eb6834; stroke: #eb6834; }
  .s3 { fill: #1baf7a; stroke: #1baf7a; }
  .s4 { fill: #eda100; stroke: #eda100; }
  /* Stroke-only twins. A class that sets `fill` beats a fill="none"
     presentation attribute in the cascade, which silently turns every
     polyline into a filled blob. */
  .k1 { fill: none; stroke: #2a78d6; }
  .k2 { fill: none; stroke: #eb6834; }
  .k3 { fill: none; stroke: #1baf7a; }
  .k4 { fill: none; stroke: #eda100; }
  @media (prefers-color-scheme: dark) {
    .surface { fill: #1a1a19; }
    .ink     { fill: #ffffff; }
    .muted   { fill: #c3c2b7; }
    .on-fill { fill: #1a1a19; }
    .grid    { stroke: #3a3a38; }
    .axis    { stroke: #c3c2b7; }
    .s1 { fill: #3987e5; stroke: #3987e5; }
    .s2 { fill: #d95926; stroke: #d95926; }
    .s3 { fill: #199e70; stroke: #199e70; }
    .s4 { fill: #c98500; stroke: #c98500; }
    .k1 { stroke: #3987e5; }
    .k2 { stroke: #d95926; }
    .k3 { stroke: #199e70; }
    .k4 { stroke: #c98500; }
  }
</style>
<rect class="surface" width="780" height="430"/>
<text class="ink" x="16" y="26" font-family="system-ui,sans-serif" font-size="15" font-weight="600">Fill intensity against depth, measured not assumed</text>
<text class="muted" x="16" y="46" font-family="system-ui,sans-serif" font-size="11.5">mbo lane · A = 0.377 fills/order-second · k = 12 per dollar · weighted R² = 0.904 · 7,645 maker fills over 46,504 order-seconds</text>
<text class="muted" x="16" y="66" font-family="system-ui,sans-serif" font-size="11">ln λ (fills per order-second) (axis excludes zero)</text>
<line class="grid" x1="78" y1="368.0" x2="648" y2="368.0"/>
<text class="muted" x="68" y="372.0" text-anchor="end" font-family="ui-monospace,monospace" font-size="10.5">-4.831</text>
<line class="grid" x1="78" y1="295.5" x2="648" y2="295.5"/>
<text class="muted" x="68" y="299.5" text-anchor="end" font-family="ui-monospace,monospace" font-size="10.5">-3.742</text>
<line class="grid" x1="78" y1="223.0" x2="648" y2="223.0"/>
<text class="muted" x="68" y="227.0" text-anchor="end" font-family="ui-monospace,monospace" font-size="10.5">-2.654</text>
<line class="grid" x1="78" y1="150.5" x2="648" y2="150.5"/>
<text class="muted" x="68" y="154.5" text-anchor="end" font-family="ui-monospace,monospace" font-size="10.5">-1.565</text>
<line class="grid" x1="78" y1="78.0" x2="648" y2="78.0"/>
<text class="muted" x="68" y="82.0" text-anchor="end" font-family="ui-monospace,monospace" font-size="10.5">-0.476</text>
<text class="muted" x="78.0" y="388" text-anchor="middle" font-family="ui-monospace,monospace" font-size="10.5">0</text>
<text class="muted" x="100.8" y="388" text-anchor="middle" font-family="ui-monospace,monospace" font-size="10.5">1</text>
<text class="muted" x="123.6" y="388" text-anchor="middle" font-family="ui-monospace,monospace" font-size="10.5">2</text>
<text class="muted" x="146.4" y="388" text-anchor="middle" font-family="ui-monospace,monospace" font-size="10.5">3</text>
<text class="muted" x="169.2" y="388" text-anchor="middle" font-family="ui-monospace,monospace" font-size="10.5">4</text>
<text class="muted" x="192.0" y="388" text-anchor="middle" font-family="ui-monospace,monospace" font-size="10.5">5</text>
<text class="muted" x="214.8" y="388" text-anchor="middle" font-family="ui-monospace,monospace" font-size="10.5">6</text>
<text class="muted" x="237.6" y="388" text-anchor="middle" font-family="ui-monospace,monospace" font-size="10.5">7</text>
<text class="muted" x="260.4" y="388" text-anchor="middle" font-family="ui-monospace,monospace" font-size="10.5">8</text>
<text class="muted" x="283.2" y="388" text-anchor="middle" font-family="ui-monospace,monospace" font-size="10.5">9</text>
<text class="muted" x="306.0" y="388" text-anchor="middle" font-family="ui-monospace,monospace" font-size="10.5">10</text>
<text class="muted" x="328.8" y="388" text-anchor="middle" font-family="ui-monospace,monospace" font-size="10.5">11</text>
<text class="muted" x="351.6" y="388" text-anchor="middle" font-family="ui-monospace,monospace" font-size="10.5">12</text>
<text class="muted" x="374.4" y="388" text-anchor="middle" font-family="ui-monospace,monospace" font-size="10.5">13</text>
<text class="muted" x="397.2" y="388" text-anchor="middle" font-family="ui-monospace,monospace" font-size="10.5">14</text>
<text class="muted" x="420.0" y="388" text-anchor="middle" font-family="ui-monospace,monospace" font-size="10.5">15</text>
<text class="muted" x="442.8" y="388" text-anchor="middle" font-family="ui-monospace,monospace" font-size="10.5">16</text>
<text class="muted" x="465.6" y="388" text-anchor="middle" font-family="ui-monospace,monospace" font-size="10.5">17</text>
<text class="muted" x="488.4" y="388" text-anchor="middle" font-family="ui-monospace,monospace" font-size="10.5">18</text>
<text class="muted" x="511.2" y="388" text-anchor="middle" font-family="ui-monospace,monospace" font-size="10.5">19</text>
<text class="muted" x="534.0" y="388" text-anchor="middle" font-family="ui-monospace,monospace" font-size="10.5">20</text>
<text class="muted" x="556.8" y="388" text-anchor="middle" font-family="ui-monospace,monospace" font-size="10.5">21</text>
<text class="muted" x="579.6" y="388" text-anchor="middle" font-family="ui-monospace,monospace" font-size="10.5">22</text>
<text class="muted" x="602.4" y="388" text-anchor="middle" font-family="ui-monospace,monospace" font-size="10.5">23</text>
<text class="muted" x="625.2" y="388" text-anchor="middle" font-family="ui-monospace,monospace" font-size="10.5">24</text>
<text class="muted" x="648.0" y="388" text-anchor="middle" font-family="ui-monospace,monospace" font-size="10.5">25</text>
<text class="muted" x="363" y="412" text-anchor="middle" font-family="system-ui,sans-serif" font-size="11">depth from mid (ticks)</text>
<polyline class="k1" stroke-width="2" stroke-linejoin="round" points="78.0,106.1 100.8,115.1 123.6,144.7 146.4,157.6 169.2,165.7 192.0,169.7 214.8,178.3 237.6,188.0 260.4,214.0 283.2,203.6 306.0,213.1 328.8,204.1 351.6,192.2 374.4,180.1 397.2,201.3 420.0,196.4 442.8,244.6 465.6,213.4 488.4,239.6 511.2,244.6 534.0,247.0 556.8,311.1 579.6,240.2 602.4,222.9 625.2,276.9 648.0,339.9"/>
<circle class="s1" cx="78.0" cy="106.1" r="4"/>
<circle class="s1" cx="100.8" cy="115.1" r="4"/>
<circle class="s1" cx="123.6" cy="144.7" r="4"/>
<circle class="s1" cx="146.4" cy="157.6" r="4"/>
<circle class="s1" cx="169.2" cy="165.7" r="4"/>
<circle class="s1" cx="192.0" cy="169.7" r="4"/>
<circle class="s1" cx="214.8" cy="178.3" r="4"/>
<circle class="s1" cx="237.6" cy="188.0" r="4"/>
<circle class="s1" cx="260.4" cy="214.0" r="4"/>
<circle class="s1" cx="283.2" cy="203.6" r="4"/>
<circle class="s1" cx="306.0" cy="213.1" r="4"/>
<circle class="s1" cx="328.8" cy="204.1" r="4"/>
<circle class="s1" cx="351.6" cy="192.2" r="4"/>
<circle class="s1" cx="374.4" cy="180.1" r="4"/>
<circle class="s1" cx="397.2" cy="201.3" r="4"/>
<circle class="s1" cx="420.0" cy="196.4" r="4"/>
<circle class="s1" cx="442.8" cy="244.6" r="4"/>
<circle class="s1" cx="465.6" cy="213.4" r="4"/>
<circle class="s1" cx="488.4" cy="239.6" r="4"/>
<circle class="s1" cx="511.2" cy="244.6" r="4"/>
<circle class="s1" cx="534.0" cy="247.0" r="4"/>
<circle class="s1" cx="556.8" cy="311.1" r="4"/>
<circle class="s1" cx="579.6" cy="240.2" r="4"/>
<circle class="s1" cx="602.4" cy="222.9" r="4"/>
<circle class="s1" cx="625.2" cy="276.9" r="4"/>
<circle class="s1" cx="648.0" cy="339.9" r="4"/>
<polyline class="k2" stroke-width="2" stroke-linejoin="round" points="78.0,111.2 100.8,119.4 123.6,127.6 146.4,135.8 169.2,144.0 192.0,152.2 214.8,160.4 237.6,168.5 260.4,176.7 283.2,184.9 306.0,193.1 328.8,201.3 351.6,209.5 374.4,217.7 397.2,225.9 420.0,234.1 442.8,242.3 465.6,250.5 488.4,258.6 511.2,266.8 534.0,275.0 556.8,283.2 579.6,291.4 602.4,299.6 625.2,307.8 648.0,316.0"/>
<circle class="s2" cx="78.0" cy="111.2" r="4"/>
<circle class="s2" cx="100.8" cy="119.4" r="4"/>
<circle class="s2" cx="123.6" cy="127.6" r="4"/>
<circle class="s2" cx="146.4" cy="135.8" r="4"/>
<circle class="s2" cx="169.2" cy="144.0" r="4"/>
<circle class="s2" cx="192.0" cy="152.2" r="4"/>
<circle class="s2" cx="214.8" cy="160.4" r="4"/>
<circle class="s2" cx="237.6" cy="168.5" r="4"/>
<circle class="s2" cx="260.4" cy="176.7" r="4"/>
<circle class="s2" cx="283.2" cy="184.9" r="4"/>
<circle class="s2" cx="306.0" cy="193.1" r="4"/>
<circle class="s2" cx="328.8" cy="201.3" r="4"/>
<circle class="s2" cx="351.6" cy="209.5" r="4"/>
<circle class="s2" cx="374.4" cy="217.7" r="4"/>
<circle class="s2" cx="397.2" cy="225.9" r="4"/>
<circle class="s2" cx="420.0" cy="234.1" r="4"/>
<circle class="s2" cx="442.8" cy="242.3" r="4"/>
<circle class="s2" cx="465.6" cy="250.5" r="4"/>
<circle class="s2" cx="488.4" cy="258.6" r="4"/>
<circle class="s2" cx="511.2" cy="266.8" r="4"/>
<circle class="s2" cx="534.0" cy="275.0" r="4"/>
<circle class="s2" cx="556.8" cy="283.2" r="4"/>
<circle class="s2" cx="579.6" cy="291.4" r="4"/>
<circle class="s2" cx="602.4" cy="299.6" r="4"/>
<circle class="s2" cx="625.2" cy="307.8" r="4"/>
<circle class="s2" cx="648.0" cy="316.0" r="4"/>
<circle class="s2" cx="660" cy="312.0" r="4"/>
<text class="ink" x="670" y="316.0" font-family="system-ui,sans-serif" font-size="11.5">fitted A·e^(−kδ)</text>
<circle class="s1" cx="660" cy="335.9" r="4"/>
<text class="ink" x="670" y="339.9" font-family="system-ui,sans-serif" font-size="11.5">observed</text>
</svg>